<?xml version="1.0" encoding="iso-8859-1"?>
<!-- Uploaded to: SVG Repo, www.svgrepo.com, Generator: SVG Repo Mixer Tools -->
<svg fill="#000000" height="800px" width="800px" version="1.1" id="Layer_1" xmlns="http://www.w3.org/2000/svg" xmlns:xlink="http://www.w3.org/1999/xlink" 
	 viewBox="0 0 512 512" xml:space="preserve">
<g>
	<g>
		<path d="M220.32,145.024c-20.9,0-40.547,8.139-55.324,22.915l23.612,23.611c8.47-8.47,19.732-13.135,31.712-13.135
			c11.98,0,23.243,4.665,31.713,13.135l23.611-23.611C260.866,153.163,241.219,145.024,220.32,145.024z"/>
	</g>
</g>
<g>
	<g>
		<path d="M220.321,21.068c-54.008,0-104.783,21.032-142.974,59.222l23.61,23.611c31.884-31.883,74.273-49.441,119.363-49.441
			c45.089,0,87.479,17.558,119.363,49.441l23.612-23.611C325.104,42.1,274.33,21.068,220.321,21.068z"/>
	</g>
</g>
<g>
	<g>
		<path d="M220.32,83.045c-37.453,0-72.665,14.584-99.148,41.068l23.611,23.611c20.176-20.176,47.002-31.288,75.537-31.288
			c28.535,0,55.361,11.113,75.538,31.289l23.611-23.612C292.985,97.631,257.773,83.045,220.32,83.045z"/>
	</g>
</g>
<g>
	<g>
		<path d="M121.173,393.61c-26.832,0-48.661,21.829-48.661,48.661c0,26.832,21.829,48.661,48.661,48.661
			s48.661-21.829,48.661-48.661C169.834,415.439,148.004,393.61,121.173,393.61z"/>
	</g>
</g>
<g>
	<g>
		<path d="M372.87,393.61c-26.832,0-48.661,21.829-48.661,48.661c0,26.832,21.83,48.661,48.661,48.661s48.661-21.829,48.661-48.661
			C421.531,415.439,399.702,393.61,372.87,393.61z"/>
	</g>
</g>
<g>
	<g>
		<path d="M385.586,320.695l-49-98.956H104.055L55.58,319.637H0v139.33h40.832c-1.12-5.393-1.712-10.976-1.712-16.696
			c0-45.244,36.808-82.052,82.052-82.052s82.052,36.808,82.052,82.052c0,5.72-0.592,11.303-1.712,16.696h91.016
			c-1.12-5.393-1.712-10.976-1.712-16.696c0-45.244,36.808-82.052,82.052-82.052c45.244,0,82.052,36.808,82.052,82.052
			c0,5.72-0.592,11.303-1.712,16.696H512V334.052L385.586,320.695z M203.625,319.637H92.84l31.941-64.508h78.844V319.637z
			 M237.016,319.637V255.13h78.844l31.942,64.508H237.016z"/>
	</g>
</g>
</svg>